/* XPM */
static char * collectible_xpm[] = {
"32 32 5 1",
" 	c #C8D45D",
".	c #14182E",
"+	c #FFC2A1",
"@	c #F5FFE8",
"#	c #E64539",
"                                ",
"                                ",
"                                ",
"                                ",
"                                ",
"                                ",
"                                ",
"                                ",
"             ......             ",
"             ......             ",
"          ...++++++...          ",
"          ...++++++...          ",
"          ...++++++...          ",
"        ..+++@@####+++..        ",
"        ..+++@@####+++..        ",
"        ..+++######+++..        ",
"        ..+++######+++..        ",
"        ..+++######+++..        ",
"        ..+++######+++..        ",
"          ...++++++...          ",
"          ...++++++...          ",
"          ...++++++...          ",
"             ......             ",
"             ......             ",
"                                ",
"                                ",
"                                ",
"                                ",
"                                ",
"                                ",
"                                ",
"                                "};
