/* XPM */
static char * exit_xpm[] = {
"32 32 5 1",
" 	c #C8D45D",
".	c #14182E",
"+	c #2CE8F5",
"@	c #F5FFE8",
"#	c #0095E9",
"          ............          ",
"          ............          ",
"          ............          ",
"          ............          ",
"    ......++++++++++++......    ",
"    ......++++++++++++......    ",
"    ......++++++++++++......    ",
"    ......++++++++++++......    ",
"    ......++++++++++++......    ",
"    ......++++++++++++......    ",
"....++++++@@@@########++++++....",
"....++++++@@@@########++++++....",
"....++++++@@@@########++++++....",
"....++++++@@@@########++++++....",
"....++++++############++++++....",
"....++++++############++++++....",
"....++++++############++++++....",
"....++++++############++++++....",
"....++++++############++++++....",
"....++++++############++++++....",
"....++++++############++++++....",
"....++++++############++++++....",
"    ......++++++++++++......    ",
"    ......++++++++++++......    ",
"    ......++++++++++++......    ",
"    ......++++++++++++......    ",
"    ......++++++++++++......    ",
"    ......++++++++++++......    ",
"          ............          ",
"          ............          ",
"          ............          ",
"          ............          "};
