/* XPM */
static char * player_xpm[] = {
"32 32 5 1",
" 	c #C8D45D",
".	c #14182E",
"+	c #FFEE83",
"@	c #F0B541",
"#	c #CF752B",
"                                ",
"                                ",
"                                ",
"            ........            ",
"            ........            ",
"         ...++++++++...         ",
"         ...++++++++...         ",
"       ..+@@@@@@@@@@@@+..       ",
"       ..+@@@@@@@@@@@@+..       ",
"     ..++@@@@@@@@@@@@@@++..     ",
"     ..@@@@@@@@@@@@@@@@@@..     ",
"     ..@@@@@@@@@@@@@@@@@@..     ",
"   ..++@@@@@@@@@@@@@@@@@@++..   ",
"   ..++@@@@@@@@@@@@@@@@@@++..   ",
"   ..@@@@@@@@@@@@@@@@@@@@@@..   ",
"   ..@@@@@@@@@@@@@@@@@@@@@@..   ",
"   ..@@@@@@@@@@@@@@@@@@@@@@..   ",
"   ..@@@@@@@@@@@@@@@@@@@@@@..   ",
"   ..##@@@@@@@@@@@@@@@@@@##..   ",
"   ..##@@@@@@@@@@@@@@@@@@##..   ",
"     ..@@@@@@@@@@@@@@@@@@..     ",
"     ..@@@@@@@@@@@@@@@@@@..     ",
"     ..##@@@@@@@@@@@@@@##..     ",
"       ..###@@@@@@@@###..       ",
"       ..###@@@@@@@@###..       ",
"         ...########...         ",
"         ...########...         ",
"            ........            ",
"            ........            ",
"                                ",
"                                ",
"                                "};
